{"asset":{"version":"2.0","generator":"Blockbench 5.0.2 glTF exporter"},"scenes":[{"nodes":[0],"name":"blockbench_export"}],"scene":0,"nodes":[{"name":"cone","mesh":0}],"bufferViews":[{"buffer":0,"byteOffset":0,"byteLength":864,"target":34962,"byteStride":12},{"buffer":0,"byteOffset":864,"byteLength":864,"target":34962,"byteStride":12},{"buffer":0,"byteOffset":1728,"byteLength":576,"target":34962,"byteStride":8},{"buffer":0,"byteOffset":2304,"byteLength":8,"target":34963},{"buffer":0,"byteOffset":2312,"byteLength":8,"target":34963},{"buffer":0,"byteOffset":2320,"byteLength":8,"target":34963},{"buffer":0,"byteOffset":2328,"byteLength":8,"target":34963},{"buffer":0,"byteOffset":2336,"byteLength":8,"target":34963},{"buffer":0,"byteOffset":2344,"byteLength":8,"target":34963},{"buffer":0,"byteOffset":2352,"byteLength":8,"target":34963},{"buffer":0,"byteOffset":2360,"byteLength":8,"target":34963},{"buffer":0,"byteOffset":2368,"byteLength":8,"target":34963},{"buffer":0,"byteOffset":2376,"byteLength":8,"target":34963},{"buffer":0,"byteOffset":2384,"byteLength":8,"target":34963},{"buffer":0,"byteOffset":2392,"byteLength":8,"target":34963},{"buffer":0,"byteOffset":2400,"byteLength":8,"target":34963},{"buffer":0,"byteOffset":2408,"byteLength":8,"target":34963},{"buffer":0,"byteOffset":2416,"byteLength":8,"target":34963},{"buffer":0,"byteOffset":2424,"byteLength":8,"target":34963},{"buffer":0,"byteOffset":2432,"byteLength":8,"target":34963},{"buffer":0,"byteOffset":2440,"byteLength":8,"target":34963},{"buffer":0,"byteOffset":2448,"byteLength":8,"target":34963},{"buffer":0,"byteOffset":2456,"byteLength":8,"target":34963},{"buffer":0,"byteOffset":2464,"byteLength":8,"target":34963},{"buffer":0,"byteOffset":2472,"byteLength":8,"target":34963},{"buffer":0,"byteOffset":2480,"byteLength":8,"target":34963},{"buffer":0,"byteOffset":2488,"byteLength":8,"target":34963}],"buffers":[{"byteLength":2496,"uri":"data:application/octet-stream;base64,"}],"accessors":[{"bufferView":0,"componentType":5126,"count":72,"max":[0.5,1,0.5],"min":[-0.5,0,-0.5],"type":"VEC3"},{"bufferView":1,"componentType":5126,"count":72,"max":[0.8944271802902222,0.4472135901451111,0.8944271802902222],"min":[-0.8944271802902222,-1,-0.8944271802902222],"type":"VEC3"},{"bufferView":2,"componentType":5126,"count":72,"max":[0.5176382064819336,0.5590156316757202],"min":[0,0],"type":"VEC2"},{"bufferView":3,"componentType":5123,"count":3,"max":[2],"min":[0],"type":"SCALAR"},{"bufferView":4,"componentType":5123,"count":3,"max":[5],"min":[3],"type":"SCALAR"},{"bufferView":5,"componentType":5123,"count":3,"max":[8],"min":[6],"type":"SCALAR"},{"bufferView":6,"componentType":5123,"count":3,"max":[11],"min":[9],"type":"SCALAR"},{"bufferView":7,"componentType":5123,"count":3,"max":[14],"min":[12],"type":"SCALAR"},{"bufferView":8,"componentType":5123,"count":3,"max":[17],"min":[15],"type":"SCALAR"},{"bufferView":9,"componentType":5123,"count":3,"max":[20],"min":[18],"type":"SCALAR"},{"bufferView":10,"componentType":5123,"count":3,"max":[23],"min":[21],"type":"SCALAR"},{"bufferView":11,"componentType":5123,"count":3,"max":[26],"min":[24],"type":"SCALAR"},{"bufferView":12,"componentType":5123,"count":3,"max":[29],"min":[27],"type":"SCALAR"},{"bufferView":13,"componentType":5123,"count":3,"max":[32],"min":[30],"type":"SCALAR"},{"bufferView":14,"componentType":5123,"count":3,"max":[35],"min":[33],"type":"SCALAR"},{"bufferView":15,"componentType":5123,"count":3,"max":[38],"min":[36],"type":"SCALAR"},{"bufferView":16,"componentType":5123,"count":3,"max":[41],"min":[39],"type":"SCALAR"},{"bufferView":17,"componentType":5123,"count":3,"max":[44],"min":[42],"type":"SCALAR"},{"bufferView":18,"componentType":5123,"count":3,"max":[47],"min":[45],"type":"SCALAR"},{"bufferView":19,"componentType":5123,"count":3,"max":[50],"min":[48],"type":"SCALAR"},{"bufferView":20,"componentType":5123,"count":3,"max":[53],"min":[51],"type":"SCALAR"},{"bufferView":21,"componentType":5123,"count":3,"max":[56],"min":[54],"type":"SCALAR"},{"bufferView":22,"componentType":5123,"count":3,"max":[59],"min":[57],"type":"SCALAR"},{"bufferView":23,"componentType":5123,"count":3,"max":[62],"min":[60],"type":"SCALAR"},{"bufferView":24,"componentType":5123,"count":3,"max":[65],"min":[63],"type":"SCALAR"},{"bufferView":25,"componentType":5123,"count":3,"max":[68],"min":[66],"type":"SCALAR"},{"bufferView":26,"componentType":5123,"count":3,"max":[71],"min":[69],"type":"SCALAR"}],"materials":[{"pbrMetallicRoughness":{"metallicFactor":0,"roughnessFactor":1},"alphaMode":"MASK","alphaCutoff":0.05,"doubleSided":true},{"pbrMetallicRoughness":{"metallicFactor":0,"roughnessFactor":1,"baseColorTexture":{"index":0}},"alphaMode":"MASK","alphaCutoff":0.05,"doubleSided":true}],"textures":[{"sampler":0,"source":0,"name":"Tile.png"}],"samplers":[{"magFilter":9728,"minFilter":9728,"wrapS":33071,"wrapT":33071}],"images":[{"mimeType":"image/png","uri":"data:image/png;base64,"}],"meshes":[{"primitives":[{"mode":4,"attributes":{"POSITION":0,"NORMAL":1,"TEXCOORD_0":2},"indices":3,"material":0},{"mode":4,"attributes":{"POSITION":0,"NORMAL":1,"TEXCOORD_0":2},"indices":4,"material":1},{"mode":4,"attributes":{"POSITION":0,"NORMAL":1,"TEXCOORD_0":2},"indices":5,"material":0},{"mode":4,"attributes":{"POSITION":0,"NORMAL":1,"TEXCOORD_0":2},"indices":6,"material":1},{"mode":4,"attributes":{"POSITION":0,"NORMAL":1,"TEXCOORD_0":2},"indices":7,"material":0},{"mode":4,"attributes":{"POSITION":0,"NORMAL":1,"TEXCOORD_0":2},"indices":8,"material":1},{"mode":4,"attributes":{"POSITION":0,"NORMAL":1,"TEXCOORD_0":2},"indices":9,"material":0},{"mode":4,"attributes":{"POSITION":0,"NORMAL":1,"TEXCOORD_0":2},"indices":10,"material":1},{"mode":4,"attributes":{"POSITION":0,"NORMAL":1,"TEXCOORD_0":2},"indices":11,"material":0},{"mode":4,"attributes":{"POSITION":0,"NORMAL":1,"TEXCOORD_0":2},"indices":12,"material":1},{"mode":4,"attributes":{"POSITION":0,"NORMAL":1,"TEXCOORD_0":2},"indices":13,"material":0},{"mode":4,"attributes":{"POSITION":0,"NORMAL":1,"TEXCOORD_0":2},"indices":14,"material":1},{"mode":4,"attributes":{"POSITION":0,"NORMAL":1,"TEXCOORD_0":2},"indices":15,"material":0},{"mode":4,"attributes":{"POSITION":0,"NORMAL":1,"TEXCOORD_0":2},"indices":16,"material":1},{"mode":4,"attributes":{"POSITION":0,"NORMAL":1,"TEXCOORD_0":2},"indices":17,"material":0},{"mode":4,"attributes":{"POSITION":0,"NORMAL":1,"TEXCOORD_0":2},"indices":18,"material":1},{"mode":4,"attributes":{"POSITION":0,"NORMAL":1,"TEXCOORD_0":2},"indices":19,"material":0},{"mode":4,"attributes":{"POSITION":0,"NORMAL":1,"TEXCOORD_0":2},"indices":20,"material":1},{"mode":4,"attributes":{"POSITION":0,"NORMAL":1,"TEXCOORD_0":2},"indices":21,"material":0},{"mode":4,"attributes":{"POSITION":0,"NORMAL":1,"TEXCOORD_0":2},"indices":22,"material":1},{"mode":4,"attributes":{"POSITION":0,"NORMAL":1,"TEXCOORD_0":2},"indices":23,"material":0},{"mode":4,"attributes":{"POSITION":0,"NORMAL":1,"TEXCOORD_0":2},"indices":24,"material":1},{"mode":4,"attributes":{"POSITION":0,"NORMAL":1,"TEXCOORD_0":2},"indices":25,"material":0},{"mode":4,"attributes":{"POSITION":0,"NORMAL":1,"TEXCOORD_0":2},"indices":26,"material":1}]}]}