{"asset":{"version":"2.0","generator":"Blockbench 4.12.6 glTF exporter"},"scenes":[{"nodes":[14],"name":"blockbench_export"}],"scene":0,"nodes":[{"name":"Head","mesh":0},{"rotation":[4.329780281177466e-17,0.7071067811865475,-0.7071067811865476,4.329780281177467e-17],"translation":[0,0,-0.006249999999999978],"name":"Face","mesh":1},{"translation":[0,-0.6875,0],"name":"headAccessory"},{"translation":[0,0.6875,0],"name":"HeadHolder","children":[0,1,2]},{"name":"Hand_L","mesh":2},{"translation":[-0.25,-0.0625,0],"name":"left_H","children":[4]},{"rotation":[0.7071067811865475,0,0,0.7071067811865476],"translation":[0,-0.03125,0],"name":"Hand_R","mesh":3},{"translation":[0.25,-0.03125,0],"name":"right_H","children":[6]},{"translation":[0,0.6875,0],"name":"Hands","children":[5,7]},{"translation":[0,-0.15625,0],"name":"Foot_L","mesh":4},{"translation":[-0.25,0.40625,0],"name":"left_F","children":[9]},{"translation":[0,-0.1875,0],"name":"Foot_R","mesh":5},{"translation":[0,0.4375,0],"name":"right_F","children":[11]},{"translation":[0.125,0.03125,0],"name":"Feet","children":[10,12]},{"children":[3,8,13]}],"bufferViews":[{"buffer":0,"byteOffset":0,"byteLength":1152,"target":34962,"byteStride":12},{"buffer":0,"byteOffset":1152,"byteLength":1152,"target":34962,"byteStride":12},{"buffer":0,"byteOffset":2304,"byteLength":768,"target":34962,"byteStride":8},{"buffer":0,"byteOffset":3072,"byteLength":264,"target":34963},{"buffer":0,"byteOffset":3336,"byteLength":48,"target":34962,"byteStride":12},{"buffer":0,"byteOffset":3384,"byteLength":48,"target":34962,"byteStride":12},{"buffer":0,"byteOffset":3432,"byteLength":32,"target":34962,"byteStride":8},{"buffer":0,"byteOffset":3464,"byteLength":12,"target":34963},{"buffer":0,"byteOffset":3476,"byteLength":1152,"target":34962,"byteStride":12},{"buffer":0,"byteOffset":4628,"byteLength":1152,"target":34962,"byteStride":12},{"buffer":0,"byteOffset":5780,"byteLength":768,"target":34962,"byteStride":8},{"buffer":0,"byteOffset":6548,"byteLength":264,"target":34963},{"buffer":0,"byteOffset":6812,"byteLength":1152,"target":34962,"byteStride":12},{"buffer":0,"byteOffset":7964,"byteLength":1152,"target":34962,"byteStride":12},{"buffer":0,"byteOffset":9116,"byteLength":768,"target":34962,"byteStride":8},{"buffer":0,"byteOffset":9884,"byteLength":264,"target":34963},{"buffer":0,"byteOffset":10148,"byteLength":1152,"target":34962,"byteStride":12},{"buffer":0,"byteOffset":11300,"byteLength":1152,"target":34962,"byteStride":12},{"buffer":0,"byteOffset":12452,"byteLength":768,"target":34962,"byteStride":8},{"buffer":0,"byteOffset":13220,"byteLength":264,"target":34963},{"buffer":0,"byteOffset":13484,"byteLength":1152,"target":34962,"byteStride":12},{"buffer":0,"byteOffset":14636,"byteLength":1152,"target":34962,"byteStride":12},{"buffer":0,"byteOffset":15788,"byteLength":768,"target":34962,"byteStride":8},{"buffer":0,"byteOffset":16556,"byteLength":264,"target":34963},{"buffer":0,"byteOffset":16820,"byteLength":20},{"buffer":0,"byteOffset":16840,"byteLength":60},{"buffer":0,"byteOffset":16900,"byteLength":20},{"buffer":0,"byteOffset":16920,"byteLength":80},{"buffer":0,"byteOffset":17000,"byteLength":20},{"buffer":0,"byteOffset":17020,"byteLength":80},{"buffer":0,"byteOffset":17100,"byteLength":20},{"buffer":0,"byteOffset":17120,"byteLength":80},{"buffer":0,"byteOffset":17200,"byteLength":20},{"buffer":0,"byteOffset":17220,"byteLength":80},{"buffer":0,"byteOffset":17300,"byteLength":12},{"buffer":0,"byteOffset":17312,"byteLength":36},{"buffer":0,"byteOffset":17348,"byteLength":12},{"buffer":0,"byteOffset":17360,"byteLength":36},{"buffer":0,"byteOffset":17396,"byteLength":12},{"buffer":0,"byteOffset":17408,"byteLength":48},{"buffer":0,"byteOffset":17456,"byteLength":12},{"buffer":0,"byteOffset":17468,"byteLength":36},{"buffer":0,"byteOffset":17504,"byteLength":12},{"buffer":0,"byteOffset":17516,"byteLength":36}],"buffers":[{"byteLength":17552,"uri":"data:application/octet-stream;base64,"}],"accessors":[{"bufferView":0,"componentType":5126,"count":96,"max":[0.25,0.25,0.25],"min":[-0.25,-0.25,-0.25],"type":"VEC3"},{"bufferView":1,"componentType":5126,"count":96,"max":[1,1,1],"min":[-1,-1,-1],"type":"VEC3"},{"bufferView":2,"componentType":5126,"count":96,"max":[0.75,0.75],"min":[0,0],"type":"VEC2"},{"bufferView":3,"componentType":5123,"count":132,"max":[95],"min":[0],"type":"SCALAR"},{"bufferView":4,"componentType":5126,"count":4,"max":[0.1875,0.25,0.1875],"min":[-0.1875,0.25,-0.1875],"type":"VEC3"},{"bufferView":5,"componentType":5126,"count":4,"max":[0,1,0],"min":[0,1,0],"type":"VEC3"},{"bufferView":6,"componentType":5126,"count":4,"max":[0.5,0.5],"min":[0,0],"type":"VEC2"},{"bufferView":7,"componentType":5123,"count":6,"max":[3],"min":[0],"type":"SCALAR"},{"bufferView":8,"componentType":5126,"count":96,"max":[0.0625,-0.25,0.0625],"min":[-0.0625,-0.375,-0.0625],"type":"VEC3"},{"bufferView":9,"componentType":5126,"count":96,"max":[1,1,1],"min":[-1,-1,-1],"type":"VEC3"},{"bufferView":10,"componentType":5126,"count":96,"max":[0.875,0.875],"min":[0,0.125],"type":"VEC2"},{"bufferView":11,"componentType":5123,"count":132,"max":[95],"min":[0],"type":"SCALAR"},{"bufferView":12,"componentType":5126,"count":96,"max":[0.0625,-0.3125,0.0625],"min":[-0.0625,-0.4375,-0.0625],"type":"VEC3"},{"bufferView":13,"componentType":5126,"count":96,"max":[1,1,1],"min":[-1,-1,-1],"type":"VEC3"},{"bufferView":14,"componentType":5126,"count":96,"max":[0.90625,0.90625],"min":[0,0.009150028228759766],"type":"VEC2"},{"bufferView":15,"componentType":5123,"count":132,"max":[95],"min":[0],"type":"SCALAR"},{"bufferView":16,"componentType":5126,"count":96,"max":[0.09375,-0.1875,0.09375],"min":[-0.09375,-0.28125,-0.10000000149011612],"type":"VEC3"},{"bufferView":17,"componentType":5126,"count":96,"max":[1,1,1],"min":[-1,-1,-1],"type":"VEC3"},{"bufferView":18,"componentType":5126,"count":96,"max":[0.5625,0.8125],"min":[0,0.5],"type":"VEC2"},{"bufferView":19,"componentType":5123,"count":132,"max":[95],"min":[0],"type":"SCALAR"},{"bufferView":20,"componentType":5126,"count":96,"max":[0.09375,-0.1875,0.09375],"min":[-0.09375,-0.28125,-0.10000000149011612],"type":"VEC3"},{"bufferView":21,"componentType":5126,"count":96,"max":[1,1,1],"min":[-1,-1,-1],"type":"VEC3"},{"bufferView":22,"componentType":5126,"count":96,"max":[0.8125,0.8125],"min":[0.125,0.125],"type":"VEC2"},{"bufferView":23,"componentType":5123,"count":132,"max":[95],"min":[0],"type":"SCALAR"},{"bufferView":24,"componentType":5126,"count":5,"max":[1],"min":[0],"type":"SCALAR"},{"bufferView":25,"componentType":5126,"count":5,"max":[0,0.6875,0],"min":[0,0.625,0],"type":"VEC3"},{"bufferView":26,"componentType":5126,"count":5,"max":[1],"min":[0],"type":"SCALAR"},{"bufferView":27,"componentType":5126,"count":5,"max":[0.258819043636322,0,0,1],"min":[-0.258819043636322,0,0,0.9659258127212524],"type":"VEC4"},{"bufferView":28,"componentType":5126,"count":5,"max":[1],"min":[0],"type":"SCALAR"},{"bufferView":29,"componentType":5126,"count":5,"max":[0.258819043636322,0,0,1],"min":[-0.258819043636322,0,0,0.9659258127212524],"type":"VEC4"},{"bufferView":30,"componentType":5126,"count":5,"max":[1],"min":[0],"type":"SCALAR"},{"bufferView":31,"componentType":5126,"count":5,"max":[0.5,0,0,1],"min":[-0.5187732577323914,0,0,0.8549118638038635],"type":"VEC4"},{"bufferView":32,"componentType":5126,"count":5,"max":[1],"min":[0],"type":"SCALAR"},{"bufferView":33,"componentType":5126,"count":5,"max":[0,0,0,1],"min":[-0.1736481785774231,0,0,0.9848077297210693],"type":"VEC4"},{"bufferView":34,"componentType":5126,"count":3,"max":[1],"min":[0],"type":"SCALAR"},{"bufferView":35,"componentType":5126,"count":3,"max":[0,0.6875,0],"min":[0,0.6812499761581421,0],"type":"VEC3"},{"bufferView":36,"componentType":5126,"count":3,"max":[1],"min":[0],"type":"SCALAR"},{"bufferView":37,"componentType":5126,"count":3,"max":[1.100000023841858,1,1],"min":[1,1,1],"type":"VEC3"},{"bufferView":38,"componentType":5126,"count":3,"max":[1],"min":[0],"type":"SCALAR"},{"bufferView":39,"componentType":5126,"count":3,"max":[0,0,0,1],"min":[-0.02181488461792469,0,0,0.9997619986534119],"type":"VEC4"},{"bufferView":40,"componentType":5126,"count":3,"max":[1],"min":[0],"type":"SCALAR"},{"bufferView":41,"componentType":5126,"count":3,"max":[0,0.6875,0],"min":[0,0.625,0],"type":"VEC3"},{"bufferView":42,"componentType":5126,"count":3,"max":[1],"min":[0],"type":"SCALAR"},{"bufferView":43,"componentType":5126,"count":3,"max":[1.0099999904632568,1,1],"min":[1,1,1],"type":"VEC3"}],"materials":[{"pbrMetallicRoughness":{"metallicFactor":0,"roughnessFactor":1,"baseColorTexture":{"index":0}},"alphaMode":"MASK","alphaCutoff":0.05,"doubleSided":true},{"pbrMetallicRoughness":{"metallicFactor":0,"roughnessFactor":1,"baseColorTexture":{"index":1}},"alphaMode":"MASK","alphaCutoff":0.05,"doubleSided":true}],"textures":[{"sampler":0,"source":0,"name":"texture"},{"sampler":1,"source":1,"name":"faceTextureUwU"}],"samplers":[{"magFilter":9728,"minFilter":9728,"wrapS":33071,"wrapT":33071},{"magFilter":9728,"minFilter":9728,"wrapS":33071,"wrapT":33071}],"images":[{"mimeType":"image/png","uri":"data:image/png;base64,"},{"mimeType":"image/png","uri":"data:image/png;base64,"}],"meshes":[{"primitives":[{"mode":4,"attributes":{"POSITION":0,"NORMAL":1,"TEXCOORD_0":2},"indices":3,"material":0}]},{"primitives":[{"mode":4,"attributes":{"POSITION":4,"NORMAL":5,"TEXCOORD_0":6},"indices":7,"material":1}]},{"primitives":[{"mode":4,"attributes":{"POSITION":8,"NORMAL":9,"TEXCOORD_0":10},"indices":11,"material":0}]},{"primitives":[{"mode":4,"attributes":{"POSITION":12,"NORMAL":13,"TEXCOORD_0":14},"indices":15,"material":0}]},{"primitives":[{"mode":4,"attributes":{"POSITION":16,"NORMAL":17,"TEXCOORD_0":18},"indices":19,"material":0}]},{"primitives":[{"mode":4,"attributes":{"POSITION":20,"NORMAL":21,"TEXCOORD_0":22},"indices":23,"material":0}]}],"animations":[{"name":"walkAndHold","samplers":[{"input":24,"output":25,"interpolation":"LINEAR"},{"input":26,"output":27,"interpolation":"LINEAR"},{"input":28,"output":29,"interpolation":"LINEAR"},{"input":30,"output":31,"interpolation":"LINEAR"},{"input":32,"output":33,"interpolation":"LINEAR"}],"channels":[{"sampler":0,"target":{"node":3,"path":"translation"}},{"sampler":1,"target":{"node":10,"path":"rotation"}},{"sampler":2,"target":{"node":12,"path":"rotation"}},{"sampler":3,"target":{"node":5,"path":"rotation"}},{"sampler":4,"target":{"node":7,"path":"rotation"}}]},{"name":"IdleAndHold","samplers":[{"input":34,"output":35,"interpolation":"LINEAR"},{"input":36,"output":37,"interpolation":"LINEAR"},{"input":38,"output":39,"interpolation":"LINEAR"},{"input":40,"output":41,"interpolation":"LINEAR"},{"input":42,"output":43,"interpolation":"LINEAR"}],"channels":[{"sampler":0,"target":{"node":3,"path":"translation"}},{"sampler":1,"target":{"node":3,"path":"scale"}},{"sampler":2,"target":{"node":8,"path":"rotation"}},{"sampler":3,"target":{"node":8,"path":"translation"}},{"sampler":4,"target":{"node":13,"path":"scale"}}]}]}